#!OML:ASF F:\VICON\USERDATA\INSTALL\rory3\rory3.ASF
:FULLY-SPECIFIED
:DEGREES
51
root 0.09090626053867107 18.173369188550065 7.118027372624456 -2.8882270342627003 -1.4083887404788151 -4.8141513622226855
lfemur -10.828390223051287 -1.4638497859541677 -15.60362597858746
ltibia 68.58819742232862
lfoot -3.0452201788422126 -6.322916432166497
ltoes -5.780702114084154
rfemur -14.094906841370067 5.741487695529478 29.417857451922313
rtibia 30.96503159073343
rfoot -9.636570153589327 -6.108867575699921
rtoes 5.715301265983199
lowerback 10.70012688555459 -0.296883993398165 2.1788351313202927
upperback 0.5222179881045049 0.2323223414510298 2.5644891315427
thorax -5.215077739004068 -0.20481257570822048 2.2076830660247557
lowerneck -15.038481568131816 -2.7361604638382904 -3.0698183267613857
upperneck 23.140618892989202 -3.287385229394739 0.20520076472210458
head 9.69723785547677 -1.8256274493172737 0.24311044302230128
lclavicle -1.3905168379757332e-15 -1.857856273115013e-15
lhumerus -29.81397519167068 2.644923789856298 81.50668108176863
lradius 28.068765862445634
lwrist 3.6113344137648147
lhand -27.045181216938364 25.583792048621575
lfingers 7.125019999999999
lthumb -0.6164884962235355 55.33845411952206
rclavicle -1.3882907892206143e-15 -1.844522321884087e-15
rhumerus -32.979765675474695 -26.052981980734593 -73.78838251532062
rradius 17.828524795668745
rwrist 15.522281269393384
rhand -17.78845205045362 22.50204691301383
rfingers 7.125019999999999
rthumb 8.365135388231538 -7.281380953905084
52
root 0.09364697390658105 18.16526078028767 7.963342619224955 -2.8541601671828447 -1.8291309861726095 -5.0231718581626685
lfemur -15.481051241649546 -0.3515522534841322 -15.294077859716213
ltibia 69.8807453784484
lfoot -4.817331494599992 -5.366826765514815
ltoes -5.759079975758131
rfemur -12.311691993018151 5.917464452874371 30.031864097679644
rtibia 30.703453162093258
rfoot -10.672837388377094 -6.341593379150234
rtoes 5.37161755922354
lowerback 10.69253496958774 0.036506288346526305 2.6516353037203224
upperback 0.5215464840839835 0.7099565291211309 2.443831584192461
thorax -5.275259334820362 0.03377612038321379 1.6625882990115242
lowerneck -15.045661606749107 -2.815760857884629 -3.133592129716913
upperneck 23.11353886632087 -3.4345316231363583 0.3276865629416061
head 9.693078693135647 -1.8436678965464204 0.23511401247943747
lclavicle -1.39052058365514e-15 -1.8578594347842176e-15
lhumerus -30.58488967209532 3.354546482543682 81.404129912203
lradius 27.456065305396955
lwrist 3.31980088006159
lhand -27.058751322842884 25.34412738792215
lfingers 7.125019999999999
lthumb -0.6461258288251643 55.150674027969195
rclavicle -1.3882908695994793e-15 -1.8445223729725346e-15
rhumerus -31.18728293604923 -23.370177348835256 -75.85250345012639
rradius 18.496889917493895
rwrist 12.713442357988999
rhand -17.74426880827984 22.5123591835381
rfingers 7.125019999999999
rthumb 8.364326825882058 -7.273809290294641
53
root 0.10206791010714827 18.131402133548704 8.651716822339111 -2.724826291862289 -2.1761540396962773 -5.316458603355855
lfemur -19.67809667443605 0.5176250187724425 -15.065827262150655
ltibia 68.7018656993043
lfoot -5.999856286872997 -5.074753687628068
ltoes -5.7514880868908245
rfemur -10.740442409309154 6.065908909378451 30.64778276785879
rtibia 30.581469371488094
rfoot -11.432079707173278 -6.463269462925553
rtoes 4.915173427854045
lowerback 10.705337597918726 0.35169488392607134 3.136814191505517
upperback 0.4908133453582958 1.142728269285875 2.324911890919959
thorax -5.313039268051445 0.2780468969682892 1.0688220736458536
lowerneck -15.15231381687569 -2.868476902054482 -3.1513517902132917
upperneck 23.08629745929149 -3.53746397796789 0.39957440297900765
head 9.711536599644546 -1.8406444517899447 0.22594909344609287
lclavicle -1.3905199866699597e-15 -1.8578603333504056e-15
lhumerus -31.60575230170207 3.7712532088709163 81.27811797935908
lradius 26.81235245733244
lwrist 3.2707124366078903
lhand -27.119915343461717 24.964980801559136
lfingers 7.125019999999999
lthumb -0.6869728408817927 54.874897710949355
rclavicle -1.3882898115979738e-15 -1.844521467521395e-15
rhumerus -29.486227960280967 -20.592872517299444 -77.55217419819193
rradius 19.369028301901015
rwrist 9.639153926449334
rhand -17.728345505495835 22.51311147485688
rfingers 7.125019999999999
rthumb 8.363718156771403 -7.264113188228238
54
root 0.11310029097498936 18.08205418007075 9.303000932025357 -2.4563752275318316 -2.438380926518633 -5.743101625741538
lfemur -23.397065897565977 1.0629275142635901 -14.764790956032744
ltibia 65.24625896308604
lfoot -5.359096845052688 -4.487646375716003
ltoes -5.348410131503651
rfemur -9.097852639678159 6.234077914562836 31.377734906650307
rtibia 30.248199256105984
rfoot -11.95308939760248 -6.508662686767839
rtoes 4.348168716931923
lowerback 10.72087584297259 0.6248988797799784 3.616409744120302
upperback 0.4366039605942662 1.5302166414493725 2.2332811812228712
thorax -5.324364456320647 0.5186060776923881 0.4523352277892586
lowerneck -15.29797377785896 -2.904176693593702 -3.169923976129631
upperneck 22.98112980408686 -3.5894344041147908 0.41474084395889893
head 9.709684851988674 -1.826006121039896 0.22142808366346856
lclavicle -1.3905219091204593e-15 -1.85786125861287e-15
lhumerus -32.525982724164194 4.174139242825655 81.18207085256647
lradius 26.12679439073625
lwrist 3.318141453833145
lhand -27.143892041397358 24.59546314349812
lfingers 7.125019999999999
lthumb -0.709354667393906 54.5840473103285
rclavicle -1.3882900412229952e-15 -1.8445216565419765e-15
rhumerus -27.915840646978054 -18.12837841540047 -78.77828741415435
rradius 20.457774494528927
rwrist 6.8779668897621775
rhand -17.733809057575964 22.514925102112514
rfingers 7.125019999999999
rthumb 8.357658721988841 -7.25295173845796
55
root 0.12506891518170077 18.027410190941918 9.821796987738038 -2.034149276721117 -2.685403301748594 -6.281477220712777
lfemur -26.200299161101675 1.2849164544798657 -14.344032348839487
ltibia 59.393101347690646
lfoot -5.703008595101959 -3.2570775235504454
ltoes -4.474009265877334
rfemur -7.480774548158109 6.398854176798303 31.999815399649634
rtibia 29.407482307391934
rfoot -12.31220217474274 -6.539635125876926
rtoes 3.7786755580620963
lowerback 10.692915295231082 0.8621263501624461 4.07851226847553
upperback 0.37175722388149723 1.8732361158818003 2.1692988715629444
thorax -5.302770378071475 0.7463718240512612 -0.14500964352047352
lowerneck -15.405971966241781 -2.910971058322383 -3.16901223089946
upperneck 22.81195776551423 -3.6100995899088457 0.42505479328529405
head 9.690346173168225 -1.8060969048029965 0.21874677891991057
lclavicle -1.3905215385064643e-15 -1.8578595358553077e-15
lhumerus -33.202038921724764 4.668481571911913 81.09034470912871
lradius 25.383742553157358
lwrist 3.267915132045633
lhand -27.12740595598172 24.33828007179358
lfingers 7.125019999999999
lthumb -0.68604288232254 54.39782143775738
rclavicle -1.3882897431900312e-15 -1.8445214001015193e-15
rhumerus -26.515846387444938 -16.248399838077347 -79.50966168055848
rradius 21.699088200671394
rwrist 4.475822713179962
rhand -17.73852302939208 22.551681300790296
rfingers 7.125019999999999
rthumb 8.350693624748954 -7.233010594554086
56
root 0.13808204371087945 17.971957552986378 10.257479817158313 -1.5019165333966462 -2.95086632918089 -6.751507059038309
lfemur -28.116059386425626 1.012226255134025 -13.83326112462246
ltibia 50.95093122021593
lfoot -4.506966972879852 -2.7826777610826214
ltoes -3.9450540247615975
rfemur -5.826374485619352 6.599590116853537 32.47583893535982
rtibia 28.038755922554067
rfoot -11.993149346897557 -6.603633418421039
rtoes 3.151200387370804
lowerback 10.58375779545507 1.056615097847732 4.408218068515911
upperback 0.30037723823382345 2.153298597036506 2.1113148996365987
thorax -5.250285657238347 0.9586586562154595 -0.6684526767323296
lowerneck -15.42918663758192 -2.8891953939579267 -3.142996625030211
upperneck 22.661011878030966 -3.635194020062911 0.43730246382492366
head 9.677209954979778 -1.7932889105677945 0.22198137387549943
lclavicle -1.3905200533401268e-15 -1.857859291496437e-15
lhumerus -33.701325602754295 5.2693621473037915 80.93496298956128
lradius 24.573007277672822
lwrist 3.031849564633267
lhand -27.091988712899525 24.148069190842083
lfingers 7.125019999999999
lthumb -0.6544013389469149 54.25652652115979
rclavicle -1.3882909026357805e-15 -1.844522456396371e-15
rhumerus -25.34230995357296 -15.063321904282963 -79.82685012829751
rradius 23.027437431194947
rwrist 2.4560623004803577
rhand -17.747318811223312 22.595982957632778
rfingers 7.125019999999999
rthumb 8.344116480247225 -7.20110944291272
57
root 0.15681670363877465 17.911702197303605 10.768780345089901 -0.9438857821941418 -3.230609219765391 -7.100378809369518
lfemur -29.147238647977552 -0.09366668039220905 -13.12464020101537
ltibia 40.28888174466373
lfoot -4.071909066788475 -2.551044227992116
ltoes -3.9086851591970766
rfemur -4.324961105873914 6.679354002224711 32.77475033928795
rtibia 26.372216025622052
rfoot -11.455082430386547 -6.871073726177649
rtoes 2.432779987613481
lowerback 10.418714637441402 1.218845277772571 4.608445607058748
upperback 0.22285529131003975 2.379128722772136 2.0521412110073936
thorax -5.1723472085370865 1.1487096697276213 -1.089599815090606
lowerneck -15.409751366656835 -2.873337655257011 -3.1333710219468163
upperneck 22.547728177032415 -3.676028984417433 0.4716801400978368
head 9.668295029726119 -1.7900183073328675 0.23113639192578156
lclavicle -1.3905228691540907e-15 -1.857863976119092e-15
lhumerus -34.16887335060144 5.996936807155281 80.65740506759502
lradius 23.689178735416974
lwrist 2.6016815055221714
lhand -27.06373714741988 23.98986865189098
lfingers 7.125019999999999
lthumb -0.6412149200453183 54.1165205400201
rclavicle -1.388291440546404e-15 -1.8445229182842545e-15
rhumerus -24.409755433919766 -14.534634845627565 -79.85927057259221
rradius 24.384971831024078
rwrist 0.8591193067180036
rhand -17.771147405452187 22.61440955380319
rfingers 7.125019999999999
rthumb 8.335238944085214 -7.173859525372242
58
root 0.1886074571508652 17.842172833361275 11.467295849252903 -0.4987548435562177 -3.5137564102788534 -7.333026588779038
lfemur -28.98722727005857 -2.303728264416101 -12.000542704490702
ltibia 28.631363846150332
lfoot -4.8805595467898435 -2.6675711407550784
ltoes -3.8465579267015486
rfemur -2.946155705781985 6.509429151598532 32.882128671918665
rtibia 25.1459324812157
rfoot -11.154185726528658 -7.041794957273771
rtoes 1.6762017096805677
lowerback 10.25145530570274 1.3512464060578482 4.664731292610131
upperback 0.14850394682976625 2.5545067407184265 1.9850519748065318
thorax -5.077436336710225 1.3084148697418296 -1.3997498165553977
lowerneck -15.364074221226822 -2.871249594900373 -3.1292840858504225
upperneck 22.434215058809396 -3.72021875035785 0.5104111530163011
head 9.65914033641555 -1.7922161066825288 0.24597398716510044
lclavicle -1.390523861820163e-15 -1.857863992485897e-15
lhumerus -34.677520562274886 6.74042533013913 80.30776679108976
lradius 22.74219921005122
lwrist 2.035757462725594
lhand -27.041584310965558 23.858732876539683
lfingers 7.125019999999999
lthumb -0.6188937465166713 54.00690948621853
rclavicle -1.3882908322306168e-15 -1.8445223461647948e-15
rhumerus -23.73335032212355 -14.544941727907188 -79.7816016607608
rradius 25.739910575585693
rwrist -0.39874397268266204
rhand -17.80576211265742 22.62741133400116
rfingers 7.125019999999999
rthumb 8.305826990726697 -7.17100625618119
